<?xml version="1.0" encoding="utf-8"?>
<!-- Generator: Adobe Illustrator 24.0.1, SVG Export Plug-In . SVG Version: 6.00 Build 0)  -->
<svg version="1.1" id="Calque_1" xmlns="http://www.w3.org/2000/svg" xmlns:xlink="http://www.w3.org/1999/xlink" x="0px" y="0px"
	 viewBox="0 0 2880 1800" style="enable-background:new 0 0 2880 1800;" xml:space="preserve">
<style type="text/css">
	.st0{display:none;}
	.st1{fill:#D5ADA6;}
	.st2{fill:none;stroke:#000000;stroke-miterlimit:10;}
</style>
<g id="Calque_1_1_" class="st0">
</g>
<g id="Calque_2_1_">
	<rect y="0" class="st1" width="2880" height="1800"/>
	<g>
		<g>
			<path d="M2714.3,1266.5h-141.4v-206c0-12.2,5.2-23.8,14-31.9l10.6-9.6c11.2-10.2,25.6-15.7,40.6-15.7h19.9l1.3,215
				C2659.4,1218.3,2657.9,1243.7,2714.3,1266.5z"/>
			<path d="M2324,1266.5h141.4v-204.2c0-13.3-5.6-26-15.5-35.1l-11.6-10.6c-9.4-8.7-21.9-13.4-34.8-13.4h-23.2l-1.3,215
				C2378.9,1218.3,2380.2,1243.7,2324,1266.5z"/>
			<path d="M2333.6,686.5"/>
			<path d="M2341.9,670.9h125.5v193.4c0,22.3-8.2,43.8-22.9,60.5l0,0c-6.3,7.2-15.3,11.2-24.8,11.2h-37.3V721.4
				c0,0,1-27.8-40.2-35.1L2341.9,670.9z"/>
			<path d="M2333.6,670.9H2198v161.3l7.6-28.2c0,0,24.6-96,128.1-117.6V679v-8.1H2333.6z"/>
			<path d="M2706.7,686.5"/>
			<path d="M2698.4,670.9h-125.5v202.2c0,16.7,6.2,32.9,17.2,45.5l5.7,6.4c6.3,7.2,15.3,11.2,24.8,11.2h37.3V721.4
				c0,0-1-27.8,40.2-35.1L2698.4,670.9z"/>
			<path d="M2706.7,670.9h135.6v161.3l-7.6-28.2c0,0-24.6-96-128.1-117.6v-15.5H2706.7z"/>
			<path d="M2516.9,923.4l-44.5,45.1c-0.6,0.6-0.3,2.7,0,3l44.6,44.1c0.4,0.4,1.1,0.7,1.7,0.9c0.9,0.1,1.7-0.1,2.3-0.9l43.8-44.2
				c0.4-0.6,0.7-1.1,0.7-1.9s-0.3-1.3-0.7-1.9l-43.8-44.2c-0.6-0.6-1.1-0.9-1.9-0.9C2518.3,922.4,2517.4,922.7,2516.9,923.4z"/>
		</g>
		<g>
			<line class="st2" x1="2423.2" y1="936" x2="2423.2" y2="1009.2"/>
			<line class="st2" x1="2615.7" y1="936" x2="2615.7" y2="1005.7"/>
			<line class="st2" x1="2423.2" y1="969.5" x2="2475.8" y2="970.1"/>
			<line class="st2" x1="2563" y1="968.3" x2="2615.7" y2="969"/>
			<line class="st2" x1="2341.9" y1="679" x2="2333.6" y2="679"/>
			<line class="st2" x1="2706.7" y1="679" x2="2698.4" y2="679"/>
		</g>
	</g>
</g>
</svg>
