<?xml version="1.0" encoding="utf-8"?>
<!-- Generator: Adobe Illustrator 24.0.1, SVG Export Plug-In . SVG Version: 6.00 Build 0)  -->
<svg version="1.1" id="Calque_1" xmlns="http://www.w3.org/2000/svg" xmlns:xlink="http://www.w3.org/1999/xlink" x="0px" y="0px"
	 viewBox="0 0 2880 1800" style="enable-background:new 0 0 2880 1800;" xml:space="preserve">
<style type="text/css">
	.st0{display:none;}
	.st1{fill:#D5ADA6;}
	.st2{fill:url(#SVGID_1_);}
	.st3{fill:url(#SVGID_2_);}
	.st4{fill:url(#SVGID_3_);}
	.st5{fill:url(#SVGID_4_);}
	.st6{fill:url(#SVGID_5_);}
</style>
<g id="Calque_1_1_" class="st0">
</g>
<g id="Calque_2_1_">
	<rect y="0" class="st1" width="2880" height="1800"/>
	<g>
		<g>
			<path d="M2714.3,1266.5h-141.4v-206c0-12.2,5.2-23.8,14-31.9l10.6-9.6c11.2-10.2,25.6-15.7,40.6-15.7h19.9l1.3,215
				C2659.4,1218.3,2657.9,1243.7,2714.3,1266.5z"/>
			<path d="M2324,1266.5h141.4v-204.2c0-13.3-5.6-26-15.5-35.1l-11.6-10.6c-9.4-8.7-21.9-13.4-34.8-13.4h-23.2l-1.3,215
				C2378.9,1218.3,2380.2,1243.7,2324,1266.5z"/>
			<path d="M2333.6,686.5"/>
			<path d="M2341.9,670.9h125.5v193.4c0,22.3-8.2,43.8-22.9,60.5l0,0c-6.3,7.2-15.3,11.2-24.8,11.2h-37.3V721.4
				c0,0,1-27.8-40.2-35.1L2341.9,670.9z"/>
			<path d="M2333.6,670.9H2198v161.3l7.6-28.2c0,0,24.6-96,128.1-117.6V679v-8.1H2333.6z"/>
			<path d="M2706.7,686.5"/>
			<path d="M2698.4,670.9h-125.5v202.2c0,16.7,6.2,32.9,17.2,45.5l5.7,6.4c6.3,7.2,15.3,11.2,24.8,11.2h37.3V721.4
				c0,0-1-27.8,40.2-35.1L2698.4,670.9z"/>
			<path d="M2706.7,670.9h135.6v161.3l-7.6-28.2c0,0-24.6-96-128.1-117.6v-15.5H2706.7z"/>
		</g>
	</g>
</g>
<g>
	
		<image style="overflow:visible;opacity:0.17;" width="77" height="61" xlink:href="C598D740.png"  transform="matrix(1 0 0 1 2483.2334 940.9787)">
	</image>
	<g>
		<g>
			<linearGradient id="SVGID_1_" gradientUnits="userSpaceOnUse" x1="2520.2244" y1="1036.1997" x2="2515.2607" y2="773.1355">
				<stop  offset="0" style="stop-color:#FFFFFF"/>
				<stop  offset="0.15" style="stop-color:#B9F2FF"/>
				<stop  offset="0.33" style="stop-color:#FFFFFF"/>
				<stop  offset="0.5" style="stop-color:#B9F2FF"/>
				<stop  offset="0.63" style="stop-color:#FFFFFF"/>
				<stop  offset="0.83" style="stop-color:#B9F2FF"/>
				<stop  offset="1" style="stop-color:#FFFFFF"/>
			</linearGradient>
			<path class="st2" d="M2486.6,961.7l14.1-15.4c0.3-0.3,0.6-0.4,1-0.4h33.4c0.4,0,0.7,0.1,1,0.4l14.9,15.4c0.1,0.1,0,0.2-0.1,0.2
				h-64.2C2486.6,961.8,2486.6,961.7,2486.6,961.7z"/>
			<linearGradient id="SVGID_2_" gradientUnits="userSpaceOnUse" x1="2510.5718" y1="1036.3818" x2="2505.6084" y2="773.3176">
				<stop  offset="0" style="stop-color:#FFFFFF"/>
				<stop  offset="0.15" style="stop-color:#B9F2FF"/>
				<stop  offset="0.33" style="stop-color:#FFFFFF"/>
				<stop  offset="0.5" style="stop-color:#B9F2FF"/>
				<stop  offset="0.63" style="stop-color:#FFFFFF"/>
				<stop  offset="0.83" style="stop-color:#B9F2FF"/>
				<stop  offset="1" style="stop-color:#FFFFFF"/>
			</linearGradient>
			<path class="st3" d="M2531.4,961.5l-19.6-15.6c-0.1,0-0.1-0.1-0.2,0l-24.6,15.6c-0.1,0.1-0.1,0.2,0.1,0.2h44.3
				C2531.5,961.8,2531.5,961.6,2531.4,961.5z"/>
			<linearGradient id="SVGID_3_" gradientUnits="userSpaceOnUse" x1="2520.1792" y1="1036.2006" x2="2515.2158" y2="773.1364">
				<stop  offset="0" style="stop-color:#FFFFFF"/>
				<stop  offset="0.15" style="stop-color:#B9F2FF"/>
				<stop  offset="0.33" style="stop-color:#FFFFFF"/>
				<stop  offset="0.5" style="stop-color:#B9F2FF"/>
				<stop  offset="0.63" style="stop-color:#FFFFFF"/>
				<stop  offset="0.83" style="stop-color:#B9F2FF"/>
				<stop  offset="1" style="stop-color:#FFFFFF"/>
			</linearGradient>
			<path class="st4" d="M2486.5,961.8l32.2,31.4l32.2-31.2c0.1-0.1,0.1-0.3,0-0.4l-25.1-15.8"/>
			<linearGradient id="SVGID_4_" gradientUnits="userSpaceOnUse" x1="2505.6389" y1="961.785" x2="2505.6389" y2="961.785">
				<stop  offset="0" style="stop-color:#FFFFFF"/>
				<stop  offset="0.15" style="stop-color:#B9F2FF"/>
				<stop  offset="0.33" style="stop-color:#FFFFFF"/>
				<stop  offset="0.5" style="stop-color:#B9F2FF"/>
				<stop  offset="0.63" style="stop-color:#FFFFFF"/>
				<stop  offset="0.83" style="stop-color:#B9F2FF"/>
				<stop  offset="1" style="stop-color:#FFFFFF"/>
			</linearGradient>
			<path class="st5" d="M2505.6,961.8"/>
			<linearGradient id="SVGID_5_" gradientUnits="userSpaceOnUse" x1="2520.1235" y1="1036.2015" x2="2515.1599" y2="773.1374">
				<stop  offset="0" style="stop-color:#FFFFFF"/>
				<stop  offset="0.15" style="stop-color:#B9F2FF"/>
				<stop  offset="0.33" style="stop-color:#FFFFFF"/>
				<stop  offset="0.5" style="stop-color:#B9F2FF"/>
				<stop  offset="0.63" style="stop-color:#FFFFFF"/>
				<stop  offset="0.83" style="stop-color:#B9F2FF"/>
				<stop  offset="1" style="stop-color:#FFFFFF"/>
			</linearGradient>
			<path class="st6" d="M2505.6,961.8l19.4-15.4c0.4-0.3,0.9-0.1,1,0.3l5.7,15.1l-13,31.2c0,0.1-0.2,0.1-0.2,0L2505.6,961.8l6-16"/>
		</g>
	</g>
</g>
</svg>
